<svg xmlns="http://www.w3.org/2000/svg" viewBox="0 0 500 500"><g id="freepik--background-simple--inject-47"><path d="M209,96.13c-19.78,8.47-39.08,21.78-55.3,34.19-28.22,21.59-54,48-71.92,77.57-21.69,35.86-22.12,77.5-8.23,109.1,7.07,16.1,18.13,30.24,33.09,39.86,19.54,12.59,42.91,9.34,67.43,10.43,44.74,2,63.19,46.78,97.69,64.53,45.34,23.33,108.6-1.87,148.07-44.46,20.54-22.17,32.92-49.75,29-75.57-4.15-27.38-26.09-46.3-46.74-61.7a204.81,204.81,0,0,1-46-47.21C343.89,185.34,337,165,326.56,146.48c-17-30.25-41.62-62-84.73-59C231,88.22,219.93,91.43,209,96.13Z" style="fill:#2064FF"></path><path d="M209,96.13c-19.78,8.47-39.08,21.78-55.3,34.19-28.22,21.59-54,48-71.92,77.57-21.69,35.86-22.12,77.5-8.23,109.1,7.07,16.1,18.13,30.24,33.09,39.86,19.54,12.59,42.91,9.34,67.43,10.43,44.74,2,63.19,46.78,97.69,64.53,45.34,23.33,108.6-1.87,148.07-44.46,20.54-22.17,32.92-49.75,29-75.57-4.15-27.38-26.09-46.3-46.74-61.7a204.81,204.81,0,0,1-46-47.21C343.89,185.34,337,165,326.56,146.48c-17-30.25-41.62-62-84.73-59C231,88.22,219.93,91.43,209,96.13Z" style="fill:#fff;opacity:0.7000000000000001"></path></g><g id="freepik--character-3--inject-47"><path d="M439.67,328.59c0,1.58-16.27,2.87-36.34,2.87S367,330.17,367,328.59s16.27-2.88,36.33-2.88S439.67,327,439.67,328.59Z" style="fill:#263238"></path><path d="M365.18,176.37s-3.9-2-3.9-5.63,8.53-6.94,15.75-5.93,10.7,9.83,10.12,14.89-.14,8.53,4.63,11.85,13.44,13.59,10,18.79-7.66,6.94-4.48,11,3.76,8.67-.43,11.85A12.82,12.82,0,0,1,383,234.77c-4.77-2.31-9.68-10.7-8.38-16.91s-2.89-24.43-4.05-30.93S368.07,176.66,365.18,176.37Z" style="fill:#263238;stroke:#263238;stroke-linecap:round;stroke-linejoin:round"></path><path d="M370,225.81s-6.65,5.93-9.1,7.66a7.22,7.22,0,0,1-4.92,1.59c-.87,0-3-1-4.19.15s-2.89,4.48-2.46,4.77,4.05-2.32,4.48-2.32,1.59-.14,1.59-.14-3.18,2.31-2.46,2.74,2.61-.86,3.33-1.3a36.34,36.34,0,0,0,3.18-2.89s8.09-4.33,10-4.77,3.62-3.61,3.47-4.62A1.88,1.88,0,0,0,370,225.81Z" style="fill:#fff;stroke:#263238;stroke-linecap:round;stroke-linejoin:round"></path><path d="M368.07,190A9.07,9.07,0,0,1,370,195c0,2.75-4.19,7.81-5.64,12.14s-.28,7.23.87,8.82,3.18,4.19,3.33,5.64.72,4,.72,4,4.91,1.45,14.6-2.45c0,0,1-22.26.72-25.15s-4.19-4.77-6.07-5.06-4.05-1.45-4.77-2.89a13.55,13.55,0,0,1-1-2.75Z" style="fill:#2064FF;stroke:#263238;stroke-linecap:round;stroke-linejoin:round"></path><path d="M377.37,192.73a6.27,6.27,0,0,1-3.66-2.62,13.55,13.55,0,0,1-1-2.75l-4.63,2.6A9.07,9.07,0,0,1,370,195c0,1.25-.87,3-1.95,4.91.84,1.82,2.41,3.77,4.94,1.93S376.76,195.76,377.37,192.73Z" style="fill:#fff;stroke:#263238;stroke-linecap:round;stroke-linejoin:round"></path><path d="M367.84,170.53s-3,2.44-3.56,4.55-2.4,7-2,8.79.7,7.2,2.81,7.72,8.77-3.68,9.82-5.61,1.93-6.85-.35-11.59S368.72,168.78,367.84,170.53Z" style="fill:#fff;stroke:#263238;stroke-linecap:round;stroke-linejoin:round"></path><path d="M367.14,168.78s4.21,4,4.74,9.3-1.58,11,3,14.92,12.11-.53,12.11-.53a15.56,15.56,0,0,1-5.79-9.48c-.88-6-2.28-11.41-5.09-13.16S368.19,168.07,367.14,168.78Z" style="fill:#263238;stroke:#263238;stroke-linecap:round;stroke-linejoin:round"></path><path d="M425,266.57s4.77-2.74,5.34-2.45,6.07,7.51,6.22,8.23-.87,1.16-1.45.87-5.2-3.61-6.36-3.76-3-.57-3-.57Z" style="fill:#2064FF;stroke:#263238;stroke-linecap:round;stroke-linejoin:round"></path><path d="M377,318.61a19.57,19.57,0,0,1-1,5.06c-.72,1.45-3.32,3.9-3.32,4.48s.43.72,1.15.72a9.19,9.19,0,0,0,4.92-2.31,16.08,16.08,0,0,0,2-3.47c.44-.58,2.17-1.3,2.32-2.6s-1.74-3.47-1.74-3.47Z" style="fill:#2064FF;stroke:#263238;stroke-linecap:round;stroke-linejoin:round"></path><path d="M369.23,225.66s-3.47,21.69-3,33.4,6.65,40.47,8.1,46.54,2.74,13,2.74,13l4.34-1.59s1.3-14.31.15-23.27-2.75-22.41-2.32-26.74.44-11,.44-11,5.92,20.09,8.38,24.29,3.76,4.62,5.64,4.48,19.08-8.39,21.54-9.83,10.55-6.07,10.55-6.07l-.72-2.32s-12,3.33-16.77,4.92-11.57,3.61-11.57,3.61-1.3-16.33-2.89-25.58-7.8-24.29-10-26.31C383.83,223.21,379.06,226,369.23,225.66Z" style="fill:#263238;stroke:#263238;stroke-linecap:round;stroke-linejoin:round"></path><line x1="379.85" y1="256.74" x2="376.35" y2="243.66" style="fill:none;stroke:#fff;stroke-linecap:round;stroke-linejoin:round"></line><path d="M379.05,197a8.31,8.31,0,0,0-.86,6c.86,3.2,6.4,19.41,6.4,19.41s-6.18,4.05-9.59,6.39a80.29,80.29,0,0,1-8.74,4.9,4.29,4.29,0,0,0-3.42,0c-1.49.86-4.47,4.48-3.83,4.91s3.62-1.92,3.62-1.92a38.69,38.69,0,0,0,4.05.43c1.28,0,3.63-2.14,3.63-2.14s20.25-9.59,20.89-9.59S384.38,198,384.38,198s-1.28-2.13-3.2-2.34" style="fill:#2064FF;stroke:#263238;stroke-linecap:round;stroke-linejoin:round"></path><path d="M389.78,218.51l-6,1.33c.51,1.52.85,2.51.85,2.51s-6.18,4.05-9.59,6.39a80.29,80.29,0,0,1-8.74,4.9,4.29,4.29,0,0,0-3.42,0c-1.49.86-4.47,4.48-3.83,4.91s3.62-1.92,3.62-1.92a38.69,38.69,0,0,0,4.05.43c1.28,0,3.63-2.14,3.63-2.14s20.25-9.59,20.89-9.59C391.41,225.33,390.75,222.42,389.78,218.51Z" style="fill:#fff;stroke:#263238;stroke-linecap:round;stroke-linejoin:round"></path></g><g id="freepik--character-2--inject-47"><path d="M219.5,219.9c0,1.59-16.26,2.88-36.33,2.88s-36.33-1.29-36.33-2.88S163.1,217,183.17,217,219.5,218.32,219.5,219.9Z" style="fill:#263238"></path><polygon points="188.88 81.68 176.15 107.81 179.96 109.98 191.05 95.48 188.88 81.68" style="fill:#2064FF;stroke:#263238;stroke-linecap:round;stroke-linejoin:round"></polygon><path d="M223.13,79.78l6.57,30.84,11.36,11.65s7.28,1.75,8.15,2.33,2.62,3.5,2.62,3.5l-1.16.58-5.24-2.33h-1.75l3.2,2.62-.61.59-8.13-5.83-13.69-10.2-4.66-9.61Z" style="fill:#2064FF;stroke:#263238;stroke-linecap:round;stroke-linejoin:round"></path><path d="M249.21,124.6c-.87-.58-8.15-2.33-8.15-2.33L229.7,110.62l-.45-2.09-5.59,3.36.79,1.64,13.69,10.2,8.13,5.83.61-.59-3.2-2.62h1.75l5.24,2.33,1.16-.58S250.09,125.19,249.21,124.6Z" style="fill:#fff;stroke:#263238;stroke-linecap:round;stroke-linejoin:round"></path><path d="M200.62,77l-11.79,4.63s3.31,20.4,3.45,24.1-.8,13.64,0,14.7,2.78,1.19,2.78,1.19l24.19-.12s2.07-1,1.24-4.77c-.46-2.07.52-18.41.79-21.86s1.85-15.09,1.85-15.09-9.8-2.78-12.45-3.18S202.61,75.67,200.62,77Z" style="fill:#2064FF;stroke:#263238;stroke-linecap:round;stroke-linejoin:round"></path><path d="M203,73.65a12.52,12.52,0,0,0-2.94,1.22c-.48.49-.85,3.06-1.34,4.41s-2.08,3.67-1.59,3.79,4.65-2,4.65-2l4.77,5.41,4.53-5.65s3.54,2.69,3.79,2.32-1.59-4.77-1.71-6.6-2.82-2.45-4.41-2.57S203,73.65,203,73.65Z" style="fill:#fff;stroke:#263238;stroke-linecap:round;stroke-linejoin:round"></path><polygon points="201.94 70.69 201.94 77.84 206.4 86.06 210.66 77.74 210.66 70.27 201.94 70.69" style="fill:#fff;stroke:#263238;stroke-linecap:round;stroke-linejoin:round"></polygon><path d="M200.06,62.61s-1.8-3.21-2.81-1.4.4,5.61,1,6.61,1.6-.6,1.6-.6" style="fill:#fff;stroke:#263238;stroke-linecap:round;stroke-linejoin:round"></path><path d="M213,62.61s1.81-3.21,2.81-1.4-.4,5.61-1,6.61-1.61-.6-1.61-.6" style="fill:#fff;stroke:#263238;stroke-linecap:round;stroke-linejoin:round"></path><path d="M213.89,62c0,5.64-3.32,13.43-7.42,13.43s-7.41-7.79-7.41-13.43,3.32-10.22,7.41-10.22S213.89,56.36,213.89,62Z" style="fill:#fff;stroke:#263238;stroke-linecap:round;stroke-linejoin:round"></path><path d="M212.31,59.17s-.51,1.46.11,2.08.52,1.55.41,2.8.21,2,.63,1.56.83-6.23.83-6.64S212.31,59.17,212.31,59.17Z" style="fill:#263238;stroke:#263238;stroke-linecap:round;stroke-linejoin:round"></path><path d="M199.14,61.15l.21,3.21a.64.64,0,0,0,.83-.41c.21-.63-.31-2.6.21-3.63S202.88,58.76,203,58s-1-2.07-1-2.59.31-1,2.91,1.45,7.36,3,9.85,2.39-.52-4.36-1.14-5.19,1.66-.21.41-2.28-5.6-3.42-9.95-1.87-6.85,3.74-6.23,5.92S199.14,61.15,199.14,61.15Z" style="fill:#263238;stroke:#263238;stroke-linecap:round;stroke-linejoin:round"></path><path d="M226.5,210.56s-2.69-37.08-3.31-52-3.73-37.9-3.73-37.9l-9.3-1.14h-7.71l-10.17.9s-1.73,3.65-2.32,10.77c-.66,7.84-.21,19.55-.53,27.37-.63,14.91-3.32,52-3.32,52l-2.28,2.28v1.65l6.22,2.49,16.15-75.81.11-.17.1.17L222.56,217l6.22-2.49v-1.65Z" style="fill:#263238;stroke:#263238;stroke-linecap:round;stroke-linejoin:round"></path><polygon points="183.83 214.49 177.21 220.09 177.21 221.33 189.43 221.33 190.05 216.98 183.83 214.49" style="fill:#2064FF;stroke:#263238;stroke-linecap:round;stroke-linejoin:round"></polygon><polygon points="189.43 221.33 189.6 220.09 177.21 220.09 177.21 221.33 189.43 221.33" style="fill:#fff;stroke:#263238;stroke-linecap:round;stroke-linejoin:round"></polygon><polygon points="228.57 214.49 235.2 220.09 235.2 221.33 222.98 221.33 222.36 216.98 228.57 214.49" style="fill:#2064FF;stroke:#263238;stroke-linecap:round;stroke-linejoin:round"></polygon><polygon points="222.98 221.33 222.8 220.09 235.2 220.09 235.2 221.33 222.98 221.33" style="fill:#fff;stroke:#263238;stroke-linecap:round;stroke-linejoin:round"></polygon><polygon points="228.59 107.87 222.21 110.42 224.45 114.63 229.7 111.72 228.59 107.87" style="fill:#fff;stroke:#263238;stroke-linecap:round;stroke-linejoin:round"></polygon><path d="M181.85,108.89l-4.92-2.41s-2.15,1.66-1.93,3.5a3.75,3.75,0,0,0,1.61,2.69l5.87-.25Z" style="fill:#fff;stroke:#263238;stroke-linecap:round;stroke-linejoin:round"></path><path d="M193.71,125l-2.56,0-9-13.34s-3.35-1.55-5.57,1l12.57,14.79,1.75,2.46,2.43-2.91,3,1,.8-.85Z" style="fill:#fff;stroke:#263238;stroke-linecap:round;stroke-linejoin:round"></path></g><g id="freepik--character-1--inject-47"><path d="M167.67,441.25c0,1.59-16.27,2.88-36.34,2.88S95,442.84,95,441.25s16.27-2.87,36.33-2.87S167.67,439.67,167.67,441.25Z" style="fill:#263238"></path><polygon points="110.3 433.52 117.29 439.42 117.29 440.73 104.4 440.73 105.3 434.4 110.3 433.52" style="fill:#2064FF;stroke:#263238;stroke-linecap:round;stroke-linejoin:round"></polygon><path d="M126.41,279.47s.85-1.7,1.56-.14a7.51,7.51,0,0,1,.14,5c-.43.71-2.13,1.7-2.13,1S126.41,279.47,126.41,279.47Z" style="fill:#fff;stroke:#263238;stroke-linecap:round;stroke-linejoin:round"></path><path d="M112.68,282.78s-1.29-1.4-1.53.29a7.44,7.44,0,0,0,1.25,4.81c.6.56,2.51,1,2.32.36S112.68,282.78,112.68,282.78Z" style="fill:#fff;stroke:#263238;stroke-linecap:round;stroke-linejoin:round"></path><path d="M117.58,296.86c2,0,6.59-.33,6.59-.33l11.31-4.9,9.79-13.34,4.9-26.68a33.33,33.33,0,0,1-2.08-4.51,15.62,15.62,0,0,1,.6-4s.61-1.41.81-.2a14,14,0,0,1,0,3l.61,1a46.44,46.44,0,0,1,1.61-5.85c.61-1.21,2-.81,2,0s.61,2.83.81,4.44-2,6.8-2,6.8l-.67,28.54s-14.19,22.8-15,23.64-.68,18.24-.84,20.94,1,7.77.67,8.78-1.86,3.72-6.92,4.9-14.36.34-15.37-.84-1-4.56-1-4.56-5.11-15.14-5.11-16.5c0-.79-1.34-6.43-2.45-10.95a6.43,6.43,0,0,1,4.37-7.67A51,51,0,0,1,117.58,296.86Z" style="fill:#fff;stroke:#263238;stroke-linecap:round;stroke-linejoin:round"></path><path d="M124.17,296.53l11.31-4.9,9.79-13.34,4.16-22.62,3,.09-.59,25.06s-14.19,22.8-15,23.64-.68,18.24-.84,20.94,1,7.77.67,8.78-1.86,3.72-6.92,4.9-14.36.34-15.37-.84-1-4.56-1-4.56-5.11-15.14-5.11-16.5c0-.78-1.31-6.3-2.41-10.79a6.6,6.6,0,0,1,4.48-7.88,50.21,50.21,0,0,1,7.26-1.65C119.61,296.86,124.17,296.53,124.17,296.53Z" style="fill:#2064FF;stroke:#263238;stroke-linecap:round;stroke-linejoin:round"></path><path d="M123.49,292.47a34.74,34.74,0,0,1,3.55,2.2c.5.51,3,9.12,3,9.12l-5.41-3-5.91,4.73s-2.19-6.42-2-8.78a5.81,5.81,0,0,1,2.36-3.89Z" style="fill:#fff;stroke:#263238;stroke-linecap:round;stroke-linejoin:round"></path><polygon points="124.17 291.8 124.33 305.14 118.26 292.98 124.17 291.8" style="fill:#fff;stroke:#263238;stroke-linecap:round;stroke-linejoin:round"></polygon><path d="M112.79,283.7c.91,5.23,5.25,11.89,9,11.23s5.6-8.41,4.69-13.64-4.74-8.92-8.53-8.25S111.87,278.47,112.79,283.7Z" style="fill:#fff;stroke:#263238;stroke-linecap:round;stroke-linejoin:round"></path><path d="M126.77,282.67s-1.5.47-1.29-.09a6,6,0,0,0-.41-2.33,2.5,2.5,0,0,1-1-.95c-.44-.72.14-1.94,0-2.87s-4.64,1.77-5.42,1.91-5.31-.19-5.31-.19,1.27,2.65.86,3.05-.48,1.84-.48,1.84a14.73,14.73,0,0,1,.83,2.89c-.08.49-1,1-1.19.53s-.94-4.47-.94-4.47-1.06.34-1.44-1.83,0-7.2,2-8.51,7-2.18,9.18-1.45,4.47,5.46,4.31,7.24A32.68,32.68,0,0,0,126.77,282.67Z" style="fill:#263238;stroke:#263238;stroke-linecap:round;stroke-linejoin:round"></path><polygon points="117.29 439.42 117.29 440.73 104.4 440.73 104.67 438.84 116.61 438.84 117.29 439.42" style="fill:#fff;stroke:#263238;stroke-linecap:round;stroke-linejoin:round"></polygon><polygon points="141.63 432.99 149.79 439.42 149.79 440.73 136.09 440.73 136.99 433.19 141.63 432.99" style="fill:#2064FF;stroke:#263238;stroke-linecap:round;stroke-linejoin:round"></polygon><polygon points="149.79 439.42 149.79 440.73 136.09 440.73 136.36 438.84 149.1 438.84 149.79 439.42" style="fill:#fff;stroke:#263238;stroke-linecap:round;stroke-linejoin:round"></polygon><path d="M136.66,334.18s4.36,21.91,5.58,30.59,2.22,32.49,2.22,41.17S141.63,433,141.63,433l-4.64.2s-4-48-5.25-51.67-4-14.13-4-14.13-3.23,26-3.63,29.07S110.14,434,110.14,434l-4.84.4s7.87-38.35,8.07-41-1.61-39.16-.6-45.62,1.61-10.69,1.61-10.69S128.67,339.12,136.66,334.18Z" style="fill:#263238;stroke:#263238;stroke-linecap:round;stroke-linejoin:round"></path><line x1="127.7" y1="367.39" x2="129.12" y2="354.47" style="fill:none;stroke:#fff;stroke-linecap:round;stroke-linejoin:round"></line><path d="M108.43,301.29s-3.67,3.24-1.23,7.51c1.65,2.87,17,24.82,19.5,25.51s31.14.16,31.14.16l6.32-.35,4.81-2.76-6.35-.19s4-2.15,2.09-2.05-8.07,3.49-8.07,3.49l-26.73-4.82L119.45,308.3" style="fill:#2064FF;stroke:#263238;stroke-linecap:round;stroke-linejoin:round"></path><path d="M164.71,329.12c-1.93.11-8.07,3.49-8.07,3.49l-.56-.1.11,2,1.65,0,6.32-.35,4.81-2.76-6.35-.19S166.63,329,164.71,329.12Z" style="fill:#fff;stroke:#263238;stroke-linecap:round;stroke-linejoin:round"></path></g><g id="freepik--Icons--inject-47"><rect x="264.85" y="237.24" width="94" height="94" rx="7.24" style="fill:#263238"></rect><path d="M356.12,283,340.57,261.1l-24.09,36.74L292,288.36l-20.58,34.39a4.23,4.23,0,0,0,3.63,6.4h73.84a7.24,7.24,0,0,0,7.24-7.24Z" style="fill:#fff"></path><circle cx="289.51" cy="258.59" r="10.06" style="fill:#fff"></circle><path d="M307.38,320.3a1.94,1.94,0,0,1,3.87,0,1.94,1.94,0,1,1-3.87,0Z" style="fill:#263238"></path><path d="M325.06,316.73a5.22,5.22,0,0,1-5.35,5.53,4.17,4.17,0,0,1-3.23-1.3v5h-3.11V311.36h3v1.23a4.2,4.2,0,0,1,3.37-1.39A5.21,5.21,0,0,1,325.06,316.73Zm-3.15,0a2.74,2.74,0,1,0-2.73,3A2.71,2.71,0,0,0,321.91,316.73Z" style="fill:#263238"></path><path d="M338.12,316v6.15H335v-5.67c0-1.74-.8-2.54-2.17-2.54s-2.58.92-2.58,2.9v5.31h-3.11V311.36h3v1.25a4.74,4.74,0,0,1,3.56-1.41C336.2,311.2,338.12,312.67,338.12,316Z" style="fill:#263238"></path><path d="M352.13,311.36v8.94c0,4-2.16,5.83-6,5.83a8.83,8.83,0,0,1-5.27-1.48l1.24-2.23a6.44,6.44,0,0,0,3.79,1.21c2.19,0,3.15-1,3.15-2.93v-.46a4.41,4.41,0,0,1-3.39,1.34,5.19,5.19,0,1,1,0-10.38,4.32,4.32,0,0,1,3.55,1.53v-1.37Zm-3.08,5a2.83,2.83,0,1,0-2.81,2.63A2.61,2.61,0,0,0,349.05,316.39Z" style="fill:#263238"></path><rect x="149.11" y="237.24" width="94" height="94" rx="7.24" style="fill:#263238"></rect><path d="M240.38,283,224.83,261.1l-24.09,36.74-24.49-9.48-20.58,34.39a4.23,4.23,0,0,0,3.62,6.4h73.85a7.24,7.24,0,0,0,7.24-7.24Z" style="fill:#fff"></path><circle cx="173.77" cy="258.59" r="10.06" style="fill:#fff"></circle><path d="M196.25,320.39a2.13,2.13,0,0,1,4.26,0,2.13,2.13,0,1,1-4.26,0Z" style="fill:#263238"></path><path d="M199.44,326.14l.92-2.48a2.54,2.54,0,0,0,1.45.42c.85,0,1.4-.55,1.4-1.71V310.56h3.42v11.78a4.09,4.09,0,0,1-4.45,4.46A5,5,0,0,1,199.44,326.14ZM202.79,307a2,2,0,0,1,2.13-1.91,1.92,1.92,0,0,1,2.13,1.84,2.14,2.14,0,0,1-4.26.07Z" style="fill:#263238"></path><path d="M222.65,316.46a5.73,5.73,0,0,1-5.88,6.08,4.56,4.56,0,0,1-3.55-1.43v5.51H209.8V310.56h3.26v1.36a4.6,4.6,0,0,1,3.71-1.53A5.73,5.73,0,0,1,222.65,316.46Zm-3.46,0a3,3,0,1,0-3,3.27A3,3,0,0,0,219.19,316.46Z" style="fill:#263238"></path><path d="M237.12,310.56v9.83c0,4.39-2.37,6.41-6.63,6.41a9.68,9.68,0,0,1-5.79-1.63l1.36-2.45a7.06,7.06,0,0,0,4.17,1.34c2.41,0,3.46-1.1,3.46-3.23v-.51A4.85,4.85,0,0,1,230,321.8a5.71,5.71,0,1,1,0-11.41,4.74,4.74,0,0,1,3.91,1.68v-1.51Zm-3.38,5.53a3.11,3.11,0,1,0-3.1,2.9A2.88,2.88,0,0,0,233.74,316.09Z" style="fill:#263238"></path><path d="M206.81,214.7V135.18a7.24,7.24,0,0,1,7.24-7.24h79.52a7.24,7.24,0,0,1,7.24,7.24V214.7a7.24,7.24,0,0,1-7.24,7.24H214.05A7.24,7.24,0,0,1,206.81,214.7Z" style="fill:#263238"></path><path d="M224.52,182.9a3.08,3.08,0,0,1,6.15,0,3.08,3.08,0,1,1-6.15,0Z" style="fill:#fff"></path><path d="M232.53,177.23c0-5.13,4-8.77,9.5-8.77,3.58,0,6.4,1.55,7.63,4.33l-3.83,2.06a4.26,4.26,0,0,0-3.83-2.34,4.73,4.73,0,0,0,0,9.44,4.19,4.19,0,0,0,3.83-2.35l3.83,2.09c-1.23,2.73-4,4.31-7.63,4.31C236.49,186,232.53,182.36,232.53,177.23Z" style="fill:#fff"></path><path d="M250.87,184.16l1.64-3.54a11.66,11.66,0,0,0,5.92,1.64c2.28,0,3.14-.6,3.14-1.55,0-2.79-10.29.06-10.29-6.74,0-3.23,2.91-5.51,7.88-5.51a14,14,0,0,1,6.56,1.48l-1.65,3.52a9.8,9.8,0,0,0-4.91-1.27c-2.21,0-3.16.7-3.16,1.59,0,2.91,10.29.09,10.29,6.8,0,3.17-3,5.42-8.05,5.42A14.53,14.53,0,0,1,250.87,184.16Z" style="fill:#fff"></path><path d="M267.68,184.16l1.64-3.54a11.7,11.7,0,0,0,5.93,1.64c2.28,0,3.13-.6,3.13-1.55,0-2.79-10.29.06-10.29-6.74,0-3.23,2.91-5.51,7.88-5.51a14,14,0,0,1,6.56,1.48l-1.65,3.52a9.78,9.78,0,0,0-4.91-1.27c-2.21,0-3.16.7-3.16,1.59,0,2.91,10.29.09,10.29,6.8,0,3.17-3,5.42-8,5.42A14.55,14.55,0,0,1,267.68,184.16Z" style="fill:#fff"></path><path d="M206.81,433.49V354a7.24,7.24,0,0,1,7.24-7.24h79.52a7.24,7.24,0,0,1,7.24,7.24v79.52a7.24,7.24,0,0,1-7.24,7.24H214.05A7.24,7.24,0,0,1,206.81,433.49Z" style="fill:#263238"></path><path d="M236.82,399.53a3.24,3.24,0,0,1,6.48,0,3.24,3.24,0,1,1-6.48,0Z" style="fill:#fff"></path><path d="M241.66,408.28l1.4-3.77a3.85,3.85,0,0,0,2.21.63c1.3,0,2.13-.83,2.13-2.6v-18h5.21V402.5c0,4.15-2.43,6.78-6.78,6.78A7.58,7.58,0,0,1,241.66,408.28Zm5.11-29.12a3,3,0,0,1,3.24-2.91c1.94,0,3.24,1.2,3.24,2.81a3.25,3.25,0,0,1-6.48.1Z" style="fill:#fff"></path><path d="M255.69,400.87l1.73-3.74a12.36,12.36,0,0,0,6.25,1.73c2.4,0,3.31-.63,3.31-1.63,0-2.94-10.86.06-10.86-7.12,0-3.4,3.07-5.81,8.32-5.81a14.78,14.78,0,0,1,6.91,1.57l-1.74,3.71a10.34,10.34,0,0,0-5.17-1.34c-2.34,0-3.34.74-3.34,1.67,0,3.07,10.85.1,10.85,7.18,0,3.34-3.1,5.72-8.48,5.72A15.44,15.44,0,0,1,255.69,400.87Z" style="fill:#fff"></path></g></svg>